<?xml version="1.0" encoding="iso-8859-1"?>
<!-- Generator: Adobe Illustrator 19.0.0, SVG Export Plug-In . SVG Version: 6.00 Build 0)  -->
<svg version="1.1" id="Layer_1" xmlns="http://www.w3.org/2000/svg" xmlns:xlink="http://www.w3.org/1999/xlink" x="0px" y="0px"
	 viewBox="0 0 489.999 489.999" style="enable-background:new 0 0 489.999 489.999;" xml:space="preserve">
<g>
	<g>
		<g>
			<path d="M413.437,367.5h-22.968V7.656c0-4.228-3.428-7.656-7.656-7.656H76.562c-4.228,0-7.656,3.428-7.656,7.656V467.03
				c0,12.665,10.304,22.969,22.968,22.969h306.25c12.664,0,22.968-10.304,22.968-22.969v-91.875
				C421.093,370.928,417.665,367.5,413.437,367.5z M91.874,474.687L91.874,474.687c-4.222,0-7.656-3.435-7.656-7.656V15.313h290.937
				v451.718c0,2.683,0.463,5.261,1.312,7.656H91.874z M405.781,467.031c0,4.222-3.434,7.656-7.656,7.656
				c-4.221,0-7.656-3.435-7.656-7.656v-84.219h15.312V467.031z"/>
			<path d="M329.219,84.219H199.062c-4.228,0-7.656,3.428-7.656,7.656c0,4.228,3.428,7.656,7.656,7.656h130.156
				c4.228,0,7.656-3.428,7.656-7.656C336.875,87.647,333.447,84.219,329.219,84.219z"/>
			<path d="M329.219,160.781H199.062c-4.228,0-7.656,3.428-7.656,7.656c0,4.228,3.428,7.656,7.656,7.656h130.156
				c4.228,0,7.656-3.428,7.656-7.656S333.447,160.781,329.219,160.781z"/>
			<path d="M170.681,55.836l-32.869,32.867l-9.897-9.898c-2.99-2.989-7.838-2.991-10.828,0c-2.991,2.99-2.991,7.837-0.001,10.828
				l15.312,15.312c1.436,1.436,3.384,2.243,5.414,2.243c2.03,0,3.978-0.807,5.413-2.243l38.282-38.281
				c2.991-2.99,2.991-7.838,0.001-10.828C178.518,52.847,173.669,52.846,170.681,55.836z"/>
			<path d="M170.681,132.399l-32.869,32.867l-9.897-9.899c-2.99-2.989-7.838-2.991-10.828,0c-2.991,2.99-2.991,7.837-0.001,10.828
				l15.312,15.312c1.436,1.436,3.384,2.243,5.414,2.243c2.03,0,3.978-0.807,5.413-2.243l38.282-38.281
				c2.991-2.99,2.991-7.838,0.001-10.828C178.518,129.41,173.669,129.409,170.681,132.399z"/>
			<path d="M329.219,237.344H199.062c-4.228,0-7.656,3.428-7.656,7.656s3.428,7.656,7.656,7.656h130.156
				c4.228,0,7.656-3.428,7.656-7.656S333.447,237.344,329.219,237.344z"/>
			<path d="M329.219,313.906H199.062c-4.228,0-7.656,3.428-7.656,7.656c0,4.228,3.428,7.656,7.656,7.656h130.156
				c4.228,0,7.656-3.428,7.656-7.656C336.875,317.334,333.447,313.906,329.219,313.906z"/>
			<path d="M170.681,208.961l-32.869,32.868l-9.897-9.899c-2.99-2.989-7.838-2.991-10.828,0c-2.991,2.99-2.991,7.837-0.001,10.828
				l15.312,15.313c1.436,1.436,3.384,2.243,5.414,2.243c2.03,0,3.978-0.807,5.413-2.243l38.282-38.281
				c2.991-2.99,2.991-7.838,0.001-10.828S173.669,205.971,170.681,208.961z"/>
			<path d="M170.681,285.524l-32.869,32.867l-9.897-9.898c-2.99-2.989-7.838-2.99-10.828,0c-2.991,2.99-2.991,7.837-0.001,10.827
				l15.312,15.312c1.436,1.436,3.384,2.243,5.414,2.243c2.03,0,3.978-0.807,5.413-2.243l38.282-38.281
				c2.991-2.99,2.991-7.838,0.001-10.827C178.518,282.534,173.669,282.533,170.681,285.524z"/>
			<path d="M329.219,390.468H199.062c-4.228,0-7.656,3.428-7.656,7.656c0,4.228,3.428,7.656,7.656,7.656h130.156
				c4.228,0,7.656-3.428,7.656-7.656C336.875,393.896,333.447,390.468,329.219,390.468z"/>
			<path d="M170.681,362.086l-32.869,32.867l-9.897-9.899c-2.99-2.989-7.838-2.99-10.828,0c-2.991,2.99-2.991,7.837-0.001,10.828
				l15.312,15.312c1.436,1.436,3.384,2.243,5.414,2.243c2.03,0,3.978-0.807,5.413-2.243l38.282-38.281
				c2.991-2.99,2.991-7.838,0.001-10.828C178.518,359.097,173.669,359.096,170.681,362.086z"/>
		</g>
	</g>
</g>
<g>
</g>
<g>
</g>
<g>
</g>
<g>
</g>
<g>
</g>
<g>
</g>
<g>
</g>
<g>
</g>
<g>
</g>
<g>
</g>
<g>
</g>
<g>
</g>
<g>
</g>
<g>
</g>
<g>
</g>
</svg>
